<svg xmlns="http://www.w3.org/2000/svg" width="338" height="300" viewBox="0 0 338 300">
  <g transform="translate(14.075 -13.84)">
    <rect id="Rechteck_9" data-name="Rechteck 9" width="338" height="300" transform="translate(-14.075 13.84)" fill="#fff"/>
    <g id="Gruppe_3" data-name="Gruppe 3" transform="translate(0 30)">
      <path id="Pfad_48" data-name="Pfad 48" d="M226.132,30A72.9,72.9,0,0,0,180.6,45.738C167.656,55.75,159.037,68.5,153.962,77.774c-5.074-9.273-13.693-22.024-26.639-32.036A72.9,72.9,0,0,0,81.793,30C35.164,30,0,68.14,0,118.717c0,54.641,43.869,92.026,110.281,148.621,11.278,9.611,24.061,20.505,37.347,32.124a9.626,9.626,0,0,0,12.668,0c13.288-11.621,26.07-22.514,37.355-32.131,66.4-56.589,110.274-93.974,110.274-148.615C307.925,68.14,272.761,30,226.132,30Z" transform="translate(0 -30)"/>
    </g>
  </g>
</svg>
