<svg xmlns="http://www.w3.org/2000/svg" width="231" height="354" viewBox="0 0 231 354">
  <rect id="Rechteck_14" data-name="Rechteck 14" width="231" height="354" fill="#fff"/>
  <path id="Pfad_62" data-name="Pfad 62" d="M575.051-225.57s1.729,6.483,13.4,6.915,9.508-6.915,9.508-6.915L608.908-336.8l19.3,111.235s3.025,7.347,13.83,6.915,9.94-6.915,9.94-6.915-7.364-55.249-9.309-112.839,2.161-95.947,2.161-95.947,35.008-13.4,44.948-22.042,23.771-38.9,23.771-38.9,5.619-7.347-6.051-10.8-13.4,5.618-13.4,5.618-11.669,24.2-21.61,31.55S634.029-453.8,634.029-453.8H587.352s-23.771-3.458-36.737-15.127-25.5-31.55-25.5-31.55-3.89-9.076-13.83-5.618-5.186,10.8-5.186,10.8,20.313,31.55,28.093,38.9,36.737,22.042,36.737,22.042,5.294,38.357,6.483,95.947S575.051-225.57,575.051-225.57Z" transform="translate(-497 535)" fill="none" stroke="#000" stroke-linecap="round" stroke-linejoin="round" stroke-width="8"/>
  <g id="Ellipse_23" data-name="Ellipse 23" transform="translate(85 18)" fill="#fff" stroke="#000" stroke-width="8">
    <circle cx="27.5" cy="27.5" r="27.5" stroke="none"/>
    <circle cx="27.5" cy="27.5" r="23.5" fill="none"/>
  </g>
</svg>
