<svg xmlns="http://www.w3.org/2000/svg" width="293" height="273" viewBox="0 0 293 273">
  <rect id="Rechteck_27" data-name="Rechteck 27" width="293" height="273" fill="#fff"/>
  <path id="Pfad_104" data-name="Pfad 104" d="M110.64-156.978l33.279-96.105s-35.007-18.193-35.872-45.482,16.424-59.218,59.21-59.72,63.964,31.244,64.828,59.72-35.872,45.482-35.872,45.482l41.49,96.105Z" transform="translate(-31 425.677)" fill="none" stroke="#000" stroke-width="8"/>
  <g id="Gruppe_33" data-name="Gruppe 33" transform="translate(-29 -567)">
    <path id="Pfad_105" data-name="Pfad 105" d="M130.321-300.537s17.786-22.939,36.9-22.939,39.562,22.939,39.562,22.939-20.446,17.62-39.562,17.62S130.321-300.537,130.321-300.537Z" transform="translate(0 986)" fill="none" stroke="#000" stroke-width="5"/>
    <circle id="Ellipse_34" data-name="Ellipse 34" cx="7.5" cy="7.5" r="7.5" transform="translate(159 675)"/>
  </g>
  <path id="Pfad_108" data-name="Pfad 108" d="M39.253,0H0" transform="translate(4.5 120.5)" fill="none" stroke="#000" stroke-linecap="round" stroke-width="5"/>
  <path id="Pfad_106" data-name="Pfad 106" d="M39.99,16.671,12.243-10.616" transform="translate(31.5 44.5)" fill="none" stroke="#000" stroke-linecap="round" stroke-width="5"/>
  <path id="Pfad_110" data-name="Pfad 110" d="M0,39.359V0" transform="translate(139.5 4.5)" fill="none" stroke="#000" stroke-linecap="round" stroke-width="5"/>
  <path id="Pfad_109" data-name="Pfad 109" d="M9.3,0H52" transform="translate(221.336 120.5)" fill="none" stroke="#000" stroke-linecap="round" stroke-width="5"/>
  <path id="Pfad_107" data-name="Pfad 107" d="M16.2,17.457,44.836-10.616" transform="translate(189.257 44.5)" fill="none" stroke="#000" stroke-linecap="round" stroke-width="5"/>
</svg>
