<svg xmlns="http://www.w3.org/2000/svg" width="338" height="310" viewBox="0 0 338 310">
  <rect id="Rechteck_21" data-name="Rechteck 21" width="338" height="310" fill="#fff"/>
  <path id="Pfad_89" data-name="Pfad 89" d="M683-296.658s-15.093-112.264,75.668-113.927,100.07,80.122,89.763,106.054-.89,12.73-25.317,50.574-85.724,104.684-85.724,104.684-22.94,26.929-48.871,19.615-17.667-40.583-17.667-40.583" transform="translate(-526 428)" fill="none" stroke="#000" stroke-linecap="round" stroke-linejoin="round" stroke-width="8"/>
  <path id="Pfad_90" data-name="Pfad 90" d="M815.186-351.407s-32.418-47.209-72.978-23.272S720-300.542,720-300.542s64.267-58.513,76.236,4.654S760.6-258.4,742.208-237.1s-21,27.248-24.764,31.976-17.953,18.95-27.262,15.625-3.657-22.607-3.657-22.607" transform="translate(-526 428)" fill="none" stroke="#000" stroke-linecap="round" stroke-linejoin="round" stroke-width="8"/>
  <path id="Pfad_91" data-name="Pfad 91" d="M565.177-299.212s13.963,18.534,13.963,37.568-13.963,38.565-13.963,38.565" transform="translate(-547 430)" fill="none" stroke="#000" stroke-linecap="round" stroke-width="8"/>
  <path id="Pfad_92" data-name="Pfad 92" d="M565.177-299.212s25.914,34.4,25.914,69.722-25.914,71.573-25.914,71.573" transform="translate(-528.976 388.838)" fill="none" stroke="#000" stroke-linecap="round" stroke-width="8"/>
  <path id="Pfad_93" data-name="Pfad 93" d="M565.177-299.212s31.158,41.359,31.158,83.83-31.158,86.056-31.158,86.056" transform="translate(-500.597 374.247)" fill="none" stroke="#000" stroke-linecap="round" stroke-width="8"/>
  <path id="Pfad_94" data-name="Pfad 94" d="M565.177-299.212s37.377,49.614,37.377,100.563S565.177-95.415,565.177-95.415" transform="translate(-473.707 357.336)" fill="none" stroke="#000" stroke-linecap="round" stroke-width="8"/>
</svg>
