<svg xmlns="http://www.w3.org/2000/svg" width="222" height="271" viewBox="0 0 222 271">
  <g id="Gruppe_12" data-name="Gruppe 12" transform="translate(-70.148 -460.585)">
    <rect id="Rechteck_15" data-name="Rechteck 15" width="222" height="271" transform="translate(70.148 460.585)" fill="#fff"/>
    <path id="Pfad_63" data-name="Pfad 63" d="M580.766-274.012a14.409,14.409,0,0,0-12.984,8.4c-4.271,8.812-4.2,13.366-4.2,13.366" transform="translate(-481.515 977.22)" fill="none" stroke="#000" stroke-width="18"/>
    <path id="Pfad_64" data-name="Pfad 64" d="M776.652-406.5v23.887l17.567-4.2v-15.657Z" transform="translate(-528.319 967.904)"/>
    <path id="Pfad_65" data-name="Pfad 65" d="M612.052-434.165s9.988-6.668,9.988-14.207-9.988-8.19-9.988-15.946,7.344-12.757,7.344-12.757" transform="translate(-475.369 954.729)" fill="none" stroke="#000" stroke-linecap="round" stroke-width="10"/>
    <path id="Pfad_66" data-name="Pfad 66" d="M612.052-434.165s9.988-6.668,9.988-14.207-9.988-8.19-9.988-15.946,7.344-12.757,7.344-12.757" transform="translate(-432.074 954.729)" fill="none" stroke="#000" stroke-linecap="round" stroke-width="10"/>
    <path id="Pfad_67" data-name="Pfad 67" d="M612.052-434.165s9.988-6.668,9.988-14.207-9.988-8.19-9.988-15.946,7.344-12.757,7.344-12.757" transform="translate(-388.778 953.857)" fill="none" stroke="#000" stroke-linecap="round" stroke-width="10"/>
    <path id="Pfad_72" data-name="Pfad 72" d="M106.325,560.5s-.665-13.963,12.966-14.3,13.963,14.3,13.963,14.3V706.116s-1,12.3-13.963,12.3-12.966-12.3-12.966-12.3Z" fill="none" stroke="#000" stroke-width="8"/>
    <path id="Pfad_73" data-name="Pfad 73" d="M106.325,560.5s-.665-13.963,12.966-14.3,13.963,14.3,13.963,14.3V706.116s-1,12.3-13.963,12.3-12.966-12.3-12.966-12.3Z" transform="translate(27)" fill="none" stroke="#000" stroke-width="8"/>
    <path id="Pfad_74" data-name="Pfad 74" d="M106.325,560.5s-.665-13.963,12.966-14.3,13.963,14.3,13.963,14.3V706.116s-1,12.3-13.963,12.3-12.966-12.3-12.966-12.3Z" transform="translate(54)" fill="none" stroke="#000" stroke-width="8"/>
    <path id="Pfad_75" data-name="Pfad 75" d="M106.325,560.5s-.665-13.963,12.966-14.3,13.963,14.3,13.963,14.3V706.116s-1,12.3-13.963,12.3-12.966-12.3-12.966-12.3Z" transform="translate(81)" fill="none" stroke="#000" stroke-width="8"/>
    <path id="Pfad_76" data-name="Pfad 76" d="M106.325,560.5s-.665-13.963,12.966-14.3,13.963,14.3,13.963,14.3V706.116s-1,12.3-13.963,12.3-12.966-12.3-12.966-12.3Z" transform="translate(108)" fill="none" stroke="#000" stroke-width="8"/>
  </g>
</svg>
