<svg xmlns="http://www.w3.org/2000/svg" width="338" height="300" viewBox="0 0 338 300">
  <g transform="translate(14.075 -13.84)">
    <rect id="Rechteck_9" data-name="Rechteck 9" width="338" height="300" transform="translate(-14.075 13.84)" fill="#fff"/>
    <g id="Gruppe_3" data-name="Gruppe 3" transform="translate(0 30)">
      <path id="Pfad_48" data-name="Pfad 48" d="M241.871,30c-16.709,0-22.9,3.794-44.882,15.738S163.412,70.3,153.962,77.774c-9.168-8.808-17.7-20.093-38.772-32.036S86.368,30,69.659,30C23.03,30-12.134,68.14-12.134,118.717c0,54.641,43.869,92.026,110.281,148.621,11.278,9.611,19.727,14.751,33.681,23.376s22.134,11.126,22.134,11.126,9.553-2.5,24.41-11.126,23.734-13.766,35.018-23.382c66.4-56.589,110.274-93.974,110.274-148.615C323.664,68.14,288.5,30,241.871,30Z" transform="translate(0 -30)"/>
      <path id="Pfad_49" data-name="Pfad 49" d="M137.344,73.179l-26.46,85.056,45.429,26.132-8.487,99.3L166.3,298.305l-5.614,37.215,10.107-3.458,19.969-44.734-19.969-25.087,23.962-87.805-23.962-29.791L190.758,85.28Z" transform="translate(-11 -60.544)" fill="#fff"/>
    </g>
  </g>
</svg>
