<svg xmlns="http://www.w3.org/2000/svg" width="322" height="84" viewBox="0 0 322 84">
  <rect id="Rechteck_22" data-name="Rechteck 22" width="322" height="84" fill="#fff"/>
  <g id="Gruppe_22" data-name="Gruppe 22" transform="translate(-35 -669)">
    <path id="Pfad_95" data-name="Pfad 95" d="M531.513-300.03s19.646,28.093,53.938,28.093,53.376-28.093,53.376-28.093" transform="translate(-484 986)" fill="none" stroke="#000" stroke-linecap="round" stroke-width="12"/>
    <line id="Linie_33" data-name="Linie 33" x1="17" y2="20" transform="translate(41.5 697.5)" fill="none" stroke="#000" stroke-linecap="round" stroke-width="8"/>
    <line id="Linie_34" data-name="Linie 34" x1="12" y2="23" transform="translate(68.5 710.5)" fill="none" stroke="#000" stroke-linecap="round" stroke-width="8"/>
    <line id="Linie_35" data-name="Linie 35" y2="26" transform="translate(102.5 715.5)" fill="none" stroke="#000" stroke-linecap="round" stroke-width="8"/>
    <line id="Linie_36" data-name="Linie 36" x2="15" y2="23" transform="translate(124.5 710.5)" fill="none" stroke="#000" stroke-linecap="round" stroke-width="8"/>
    <line id="Linie_37" data-name="Linie 37" x2="20" y2="20" transform="translate(144.5 697.5)" fill="none" stroke="#000" stroke-linecap="round" stroke-width="8"/>
  </g>
  <g id="Gruppe_23" data-name="Gruppe 23" transform="translate(148 -669)">
    <path id="Pfad_95-2" data-name="Pfad 95" d="M531.513-300.03s19.646,28.093,53.938,28.093,53.376-28.093,53.376-28.093" transform="translate(-484 986)" fill="none" stroke="#000" stroke-linecap="round" stroke-width="12"/>
    <line id="Linie_33-2" data-name="Linie 33" x1="17" y2="20" transform="translate(41.5 697.5)" fill="none" stroke="#000" stroke-linecap="round" stroke-width="8"/>
    <line id="Linie_34-2" data-name="Linie 34" x1="12" y2="23" transform="translate(68.5 710.5)" fill="none" stroke="#000" stroke-linecap="round" stroke-width="8"/>
    <line id="Linie_35-2" data-name="Linie 35" y2="26" transform="translate(102.5 715.5)" fill="none" stroke="#000" stroke-linecap="round" stroke-width="8"/>
    <line id="Linie_36-2" data-name="Linie 36" x2="15" y2="23" transform="translate(124.5 710.5)" fill="none" stroke="#000" stroke-linecap="round" stroke-width="8"/>
    <line id="Linie_37-2" data-name="Linie 37" x2="20" y2="20" transform="translate(144.5 697.5)" fill="none" stroke="#000" stroke-linecap="round" stroke-width="8"/>
  </g>
</svg>
