<svg xmlns="http://www.w3.org/2000/svg" width="356" height="197" viewBox="0 0 356 197">
  <rect id="Rechteck_11" data-name="Rechteck 11" width="356" height="197" fill="#fff"/>
  <path id="Pfad_52" data-name="Pfad 52" d="M570.5-590.81s105.456-7.282,117.557-7.281,122.7,7.281,122.7,7.281v129.192s-81.642,29.605-122.7,29.947S570.5-461.619,570.5-461.619Z" transform="translate(-513 620)" fill="none" stroke="#000" stroke-linejoin="round" stroke-width="8"/>
  <path id="Pfad_53" data-name="Pfad 53" d="M570.5-580.438s-51.171-41.491-52.468,12.965S570.5-471.524,570.5-471.524" transform="translate(-513 620)" fill="none" stroke="#000" stroke-width="8"/>
  <path id="Pfad_54" data-name="Pfad 54" d="M522.5-580.438s47.28-44.862,48.576,9.594S522.5-471.524,522.5-471.524" transform="translate(-225 620)" fill="none" stroke="#000" stroke-width="8"/>
  <line id="Linie_12" data-name="Linie 12" y2="134" transform="translate(70.5 27.5)" fill="none" stroke="#000" stroke-width="8"/>
  <line id="Linie_13" data-name="Linie 13" y2="116" transform="translate(284.5 27.5)" fill="none" stroke="#000" stroke-linecap="round" stroke-width="8"/>
  <line id="Linie_14" data-name="Linie 14" x2="214" transform="translate(70.5 53.5)" fill="none" stroke="#000" stroke-width="10"/>
  <path id="Pfad_55" data-name="Pfad 55" d="M583.5-541.108s54.861,13.4,108.444,13.4,105.888-13.4,105.888-13.4" transform="translate(-513 628)" fill="none" stroke="#000" stroke-width="8"/>
  <path id="Pfad_56" data-name="Pfad 56" d="M583.5-496.16S633.931-469.8,687.622-469.8,798.264-496.16,798.264-496.16" transform="translate(-513 620)" fill="none" stroke="#000" stroke-width="8"/>
</svg>
