<svg xmlns="http://www.w3.org/2000/svg" width="203" height="204" viewBox="0 0 203 204">
  <g id="Gruppe_20" data-name="Gruppe 20" transform="translate(-95 -96)">
    <rect id="Rechteck_1" data-name="Rechteck 1" width="203" height="204" transform="translate(95 96)" fill="#fff"/>
    <g id="Ellipse_1" data-name="Ellipse 1" transform="translate(107 115)" fill="#fff" stroke="#000" stroke-width="4">
      <circle cx="89" cy="89" r="89" stroke="none"/>
      <circle cx="89" cy="89" r="87" fill="none"/>
    </g>
    <path id="Pfad_86" data-name="Pfad 86" d="M163.239,261.652s15.312-19.947,36.236-19.615c20.945.332,39.9,19.615,39.9,19.615s-21.247-11.3-39.9-11.866S163.239,261.652,163.239,261.652Z" transform="translate(-1 -3)" stroke="#000" stroke-linecap="round" stroke-linejoin="round" stroke-width="5"/>
    <g id="Ellipse_25" data-name="Ellipse 25" transform="translate(157 198)" stroke="#000" stroke-width="1">
      <circle cx="10" cy="10" r="10" stroke="none"/>
      <circle cx="10" cy="10" r="9.5" fill="none"/>
    </g>
    <g id="Ellipse_26" data-name="Ellipse 26" transform="translate(215 198)" stroke="#000" stroke-width="1">
      <circle cx="10" cy="10" r="10" stroke="none"/>
      <circle cx="10" cy="10" r="9.5" fill="none"/>
    </g>
    <path id="Pfad_87" data-name="Pfad 87" d="M148.839,190.268l32.479,8.184V185.92" transform="translate(-4)" fill="none" stroke="#000" stroke-linecap="round" stroke-linejoin="round" stroke-width="8"/>
    <path id="Pfad_88" data-name="Pfad 88" d="M181.317,190.268l-32.479,8.184V185.92" transform="translate(66)" fill="none" stroke="#000" stroke-linecap="round" stroke-linejoin="round" stroke-width="8"/>
  </g>
</svg>
