<svg xmlns="http://www.w3.org/2000/svg" width="210" height="187" viewBox="0 0 210 187">
  <g id="Gruppe_32" data-name="Gruppe 32" transform="translate(-92 -577)">
    <g id="Gruppe_30" data-name="Gruppe 30" transform="translate(122.321 91.52)">
      <rect id="Rechteck_26" data-name="Rechteck 26" width="210" height="187" transform="translate(-30.321 485.48)" fill="#fff"/>
      <path id="Pfad_97" data-name="Pfad 97" d="M23.434-195.7s-6.982-37.368,23.6-43.688S87.7-247.957,87.7-247.957s11.213,13.875,34.012,13.775a56.463,56.463,0,0,0,36.826-13.775s6.854,1.971,35.445,8.565S221.243-195.7,221.243-195.7Z" transform="translate(-48.352 859.13)" fill="none" stroke="#000" stroke-linejoin="round" stroke-width="5"/>
      <g id="Gruppe_29" data-name="Gruppe 29" transform="translate(59.569 527.725)">
        <path id="Pfad_98" data-name="Pfad 98" d="M31.228-427.786c-.446-8.91,7.275-16.038,16.632-16.038s15.3,8.316,15.3,17.523-8.947,12.474-13.068,19.6-2.97,11.435-2.97,11.435" transform="translate(-31.209 443.824)" fill="none" stroke="#000" stroke-linecap="round" stroke-width="7"/>
        <path id="Pfad_99" data-name="Pfad 99" d="M5.128,0A5.128,5.128,0,1,1,0,5.128,5.128,5.128,0,0,1,5.128,0Z" transform="translate(10.445 55.586)"/>
      </g>
      <path id="Pfad_100" data-name="Pfad 100" d="M32.653,542.336s-4.092-51.914,41.429-51.914,43.986,51.914,43.986,51.914" fill="none" stroke="#000" stroke-linecap="round" stroke-width="5"/>
      <path id="Pfad_101" data-name="Pfad 101" d="M32.653,567.4s8.695,46.032,41.173,46.032S118.835,567.4,118.835,567.4" fill="none" stroke="#000" stroke-linecap="round" stroke-width="5"/>
    </g>
    <g id="Gruppe_31" data-name="Gruppe 31">
      <path id="Pfad_102" data-name="Pfad 102" d="M154.974-352.655s-11-2.813-10.485,13.042,10.485,12.787,10.485,12.787" transform="translate(0 986)" fill="none" stroke="#000" stroke-width="5"/>
      <path id="Pfad_103" data-name="Pfad 103" d="M241.156-352.655s9.718-1.79,9.974,11.764-9.974,13.554-9.974,13.554" transform="translate(0 986)" fill="none" stroke="#000" stroke-width="5"/>
    </g>
  </g>
</svg>
