<svg xmlns="http://www.w3.org/2000/svg" width="205" height="292" viewBox="0 0 205 292">
  <rect id="Rechteck_4" data-name="Rechteck 4" width="205" height="292" fill="#fff"/>
  <g id="Ellipse_11" data-name="Ellipse 11" transform="translate(23 120)" fill="none" stroke="#000" stroke-width="8">
    <circle cx="70.5" cy="70.5" r="70.5" stroke="none"/>
    <circle cx="70.5" cy="70.5" r="66.5" fill="none"/>
  </g>
  <path id="Pfad_12" data-name="Pfad 12" d="M167.015-777.863c3.5,6.91,13.5,14.118,25.5,18.646a73.538,73.538,0,0,0,25.339,4.622c11.439-.232,22.63-2.39,30.758-6.534s16.893-11.156,18.168-14.5" transform="translate(-124 925)" fill="none" stroke="#000" stroke-width="7"/>
  <path id="Pfad_13" data-name="Pfad 13" d="M166.7-692.124a77.566,77.566,0,0,1,14.98-12.749c8.865-5.882,23.076-9.881,35.7-9.881,10.913,0,23.957,2.573,33.467,7.809,12.176,6.7,18.327,14.821,18.327,14.821" transform="translate(-124 925)" fill="none" stroke="#000" stroke-width="7"/>
  <path id="Pfad_14" data-name="Pfad 14" d="M192.954-756.861s-2.991,14.059-2.991,24.1c-.319,5.578,2.651,20.261,4.781,28.686a95.411,95.411,0,0,0,8.924,19.6,110,110,0,0,0,12.112,15.3" transform="translate(-124 925)" fill="none" stroke="#000" stroke-width="7"/>
  <path id="Pfad_15" data-name="Pfad 15" d="M213.192-756.986s2.565,14.183,2.565,24.224c.319,5.578-2.651,20.261-4.781,28.686a95.411,95.411,0,0,1-8.924,19.6,117.76,117.76,0,0,1-12.287,15.618" transform="translate(-94 925)" fill="none" stroke="#000" stroke-width="7"/>
  <line id="Linie_11" data-name="Linie 11" x1="134" transform="translate(27.5 190.5)" fill="none" stroke="#000" stroke-width="7"/>
  <path id="Pfad_17" data-name="Pfad 17" d="M210.1-789.281a122.83,122.83,0,0,1-2.452,19.708,55.142,55.142,0,0,1-5.658,14.522" transform="translate(-124 925)" fill="none" stroke="#000" stroke-width="7"/>
  <path id="Pfad_18" data-name="Pfad 18" d="M201.657-789.433a97.854,97.854,0,0,0,2.169,18.2,56.763,56.763,0,0,0,5.658,14.616" transform="translate(-100 926)" fill="none" stroke="#000" stroke-width="7"/>
  <path id="Pfad_20" data-name="Pfad 20" d="M158.045-870.755A32.2,32.2,0,0,1,160.591-880a33.158,33.158,0,0,1,4.364-6.983,21.65,21.65,0,0,1,7.518-6.125c4.275-1.958,9.006-4.037,14.711-3.583a32.477,32.477,0,0,1,7.26,1.513,41.4,41.4,0,0,1,8.393,3.768" transform="translate(-122 925)" fill="none" stroke="#000" stroke-width="7"/>
  <path id="Pfad_21" data-name="Pfad 21" d="M201.8-881.034a23.166,23.166,0,0,1,1.886-8.393,30.415,30.415,0,0,1,5.092-8.015c4.055-4.551,11.754-7.261,16.785-7.261,6.071,0,14.451,3.2,19.048,9.336a34.524,34.524,0,0,1,3.866,7.638,20.359,20.359,0,0,1,1.32,6.7" transform="translate(-124 925)" fill="none" stroke="#000" stroke-width="7"/>
  <path id="Pfad_22" data-name="Pfad 22" d="M249.8-887.446a27.211,27.211,0,0,1,9.618-1.32,20.06,20.06,0,0,1,8.487,2.829,20.577,20.577,0,0,1,7.261,7.544,16.713,16.713,0,0,1,2.169,7.544" transform="translate(-124 925)" fill="none" stroke="#000" stroke-width="7"/>
  <path id="Pfad_24" data-name="Pfad 24" d="M189.729-860.76a7.8,7.8,0,0,1,.754-2.829c.706-1.634,2.516-4.1,3.583-4.533,1.1-.582,5.338-.012,5.564,0a7.094,7.094,0,0,1,3.018.667" transform="translate(-124 925)" fill="none" stroke="#000" stroke-width="7"/>
  <path id="Pfad_25" data-name="Pfad 25" d="M233.578-860.571l1.414-.66a16.087,16.087,0,0,1,7.45,1.7c3.23,1.839,3.395,6.318,3.395,6.318" transform="translate(-124 925)" fill="none" stroke="#000" stroke-width="7"/>
  <g id="Pfad_16" data-name="Pfad 16" transform="translate(47 110)" fill="#fff">
    <path d="M 45.77440643310547 25.73338890075684 C 37.55331420898438 25.73338890075684 30.22640800476074 25.22937393188477 23.99723815917969 24.23532867431641 C 18.55568504333496 23.36697387695313 13.95857620239258 22.1297435760498 10.33360767364502 20.55800437927246 C 7.395053386688232 19.28389739990234 5.107607364654541 17.77848243713379 3.718530416488647 16.20452880859375 C 2.749961376190186 15.10703563690186 2.23799204826355 13.99892807006836 2.23799204826355 13.00000476837158 C 2.23799204826355 12.24957466125488 2.879315137863159 11.25203609466553 3.997530460357666 10.26317405700684 C 5.676438331604004 8.778467178344727 8.345499992370605 7.349051475524902 11.7161922454834 6.129451274871826 C 17.49117660522461 4.039912700653076 28.14371490478516 1.526666760444641 46.09687042236328 1.41980516910553 C 46.45154571533203 1.417697548866272 46.80908584594727 1.416635990142822 47.15996170043945 1.416635990142822 C 54.39583969116211 1.416635990142822 61.11517715454102 1.861420631408691 67.13131713867188 2.738666772842407 C 72.56813049316406 3.531420707702637 77.32920837402344 4.658297538757324 81.28230285644531 6.088005065917969 C 84.72199249267578 7.332036018371582 87.463623046875 8.787543296813965 89.21079254150391 10.29718971252441 C 90.35971832275391 11.2899284362793 91.045654296875 12.30032825469971 91.045654296875 13.00000476837158 C 91.045654296875 14.08922100067139 90.58414459228516 15.18911266326904 89.67392730712891 16.26914405822754 C 88.36763763427734 17.81917381286621 86.24581909179688 19.23918914794922 83.36745452880859 20.48974418640137 C 79.82291412353516 22.02974319458008 75.23482513427734 23.25283622741699 69.73063659667969 24.12506675720215 C 63.43659210205078 25.12245178222656 55.91314697265625 25.66149711608887 47.36930084228516 25.72722053527832 C 46.83636093139648 25.73131370544434 46.29976272583008 25.73338890075684 45.77440643310547 25.73338890075684 Z" stroke="none"/>
    <path d="M 47.15996170043945 4.916616439819336 L 46.11770248413086 4.919736862182617 C 16.48532104492188 5.096115112304688 6.500999450683594 11.96129608154297 5.734321594238281 12.9460563659668 C 6.08758544921875 14.78877639770508 14.32282257080078 22.23339653015137 45.77436447143555 22.23339653015137 L 47.34238433837891 22.22731590270996 C 80.55686187744141 21.97181701660156 87.54563903808594 14.46695613861084 87.69208526611328 13.76829624176025 C 86.41046142578125 11.40483570098877 74.42368316650391 4.916616439819336 47.15996170043945 4.916616439819336 M 47.15995788574219 -2.083379745483398 C 78.14627838134766 -2.083379745483398 94.54563903808594 5.902242660522461 94.54563903808594 12.99999618530273 C 94.54563903808594 20.17969512939453 84.17278289794922 28.94421577453613 47.39622116088867 29.22711563110352 C 46.85076904296875 29.2313117980957 46.30890274047852 29.2333984375 45.77436065673828 29.2333984375 C 10.26793670654297 29.2333984375 -1.262016296386719 20.07320976257324 -1.262016296386719 12.99999618530273 C -1.262016296386719 5.820295333862305 14.3916015625 -1.891544342041016 46.07604217529297 -2.080144882202148 C 46.43767547607422 -2.082296371459961 46.80221176147461 -2.083379745483398 47.15995788574219 -2.083379745483398 Z" stroke="none"/>
  </g>
  <path id="Pfad_23" data-name="Pfad 23" d="M225.686-787.632s-1.243-36.4,2.329-41.444c1.368-1.932,3.272-4.478,5.658-5.846a14.888,14.888,0,0,1,6.412-1.886l36.777-.377s5.761-.286,10-3.112c3.276-2.182,6.6-6.855,6.507-10.656-.09-3.873-.571-8.343-3.395-11.882a17.242,17.242,0,0,0-11.693-5.941c-4.282-.306-10.455,2.413-13.956,6.978a16,16,0,0,0-2.923,8.675" transform="translate(-124 925)" fill="none" stroke="#000" stroke-width="7"/>
  <path id="Pfad_19" data-name="Pfad 19" d="M209.994-788.244s.387-38-1.594-40.454c-.462-.537.285-.075-.471-.849a85.43,85.43,0,0,0-6.978-6.318c-1.132-.754-12.165-1.226-12.165-1.226h-27.63s-9.672-.873-13.3-3.866c-3.519-2.9-5.182-8.236-5.281-12.353-.189-7.827,6.129-13.108,9.713-14.522a18.022,18.022,0,0,1,15.371,1.792,13.436,13.436,0,0,1,4.715,5.941,21.166,21.166,0,0,1,1.414,7.167" transform="translate(-124 925)" fill="none" stroke="#000" stroke-width="7"/>
</svg>
