<svg xmlns="http://www.w3.org/2000/svg" width="138.536" height="98.433" viewBox="0 0 138.536 98.433">
  <rect id="Rechteck_6" data-name="Rechteck 6" width="138.536" height="98.433" fill="#fff"/>
  <g id="group_1" data-name="group_1" transform="translate(10.218 48.456) rotate(-65)">
    <path id="Pfad_43" data-name="Pfad 43" d="M47.394,0H0V13.71L16.5,25.257S2.518,30.8,0,33.507-1.416,87.471,0,91.9s13.609,14.856,17.474,17.474,7.712,2.879,12.446,0S44.019,96.409,47.394,91.9s1.335-57.22,0-58.389-16.5-8.25-16.5-8.25l16.5-11.548ZM21.874,3.646H25.52V23.7H21.874ZM3.646,11.81V3.646H18.228V22.018Zm24.765,93.914H18.983l-5.469-5.469H33.879Zm9.439-72.914H27.343v3.646H43.748s2.236,49.366,0,53.93a13.476,13.476,0,0,1-6.223,6.223H9.869a14.253,14.253,0,0,1-6.223-6.223c-2.248-4.455,0-53.93,0-53.93h23.7V32.811H9.544l10.937-5.469h6.431Zm5.9-21L29.165,22.018V3.646H43.748Z" transform="translate(0 0)"/>
    <path id="Pfad_45" data-name="Pfad 45" d="M6.187,4.561l-1.5,1.32,8.177,9.539a6.183,6.183,0,0,0-.344.775H0V18.22a18.186,18.186,0,0,0,9.717,16.1l1.676.889,6.717-10.92c.038,0,.073.01.109.01s.071-.01.109-.01l6.725,10.932,1.676-.889A18.186,18.186,0,0,0,36.44,18.22V16.2H23.921a6.247,6.247,0,0,0-.336-.761l8.223-9.489-1.492-1.33A18.155,18.155,0,0,0,6.187,4.561ZM20.244,18.22A2.024,2.024,0,1,1,18.22,16.2,2.024,2.024,0,0,1,20.244,18.22ZM9.993,29.76a14.133,14.133,0,0,1-5.8-9.515h8.327A6.073,6.073,0,0,0,14.272,22.8Zm16.455,0L22.168,22.8a6.053,6.053,0,0,0,1.753-2.553h8.327A14.133,14.133,0,0,1,26.447,29.76Zm-.4-23.332-5.407,6.225a6.015,6.015,0,0,0-4.816,0L10.452,6.389a14.392,14.392,0,0,1,15.586.03Z" transform="translate(5.475 44.863)"/>
  </g>
</svg>

