<?xml version="1.0" encoding="utf-8"?>
<!-- Svg Vector Icons : http://www.onlinewebfonts.com/icon -->
<!DOCTYPE svg PUBLIC "-//W3C//DTD SVG 1.1//EN" "http://www.w3.org/Graphics/SVG/1.1/DTD/svg11.dtd">
<svg version="1.1" xmlns="http://www.w3.org/2000/svg" xmlns:xlink="http://www.w3.org/1999/xlink" x="0px" y="0px" viewBox="0 0 1000 1000" enable-background="new 0 0 1000 1000" xml:space="preserve">
<metadata> Svg Vector Icons : http://www.onlinewebfonts.com/icon </metadata>
<g><g transform="translate(0.000000,511.000000) scale(0.100000,-0.100000)"><path d="M4412.1,4974.4C2755.3,4768.5,1331.4,3751.4,598.6,2254C-215,585-23.9-1365.8,1106-2860.8c196.1-259.8,664.2-727.9,923.9-924c1774.4-1340.6,4166.3-1340.6,5940.7,0c259.8,196.1,727.9,664.2,924,924c1340.6,1774.4,1340.6,4166.3,0,5940.7c-196.1,259.8-664.2,727.9-924,923.9C6943.7,4780.8,5662,5128.8,4412.1,4974.4z M5461,4592c950.9-102.9,1816.1-485.3,2536.6-1122.5c1071-946,1639.6-2409.1,1485.2-3820.8c-164.2-1524.4-1071-2847.8-2423.8-3543.9c-1659.2-855.3-3637-605.3-5048.6,637.2C1304.5-2637.8,777.5-1731,588.8-809.5c-411.7,1990,549,3992.3,2357.7,4926.1C3716,4513.6,4617.9,4685.2,5461,4592z"/><path d="M3664.6,1643.7c-247.5-107.8-306.4-436.2-112.7-629.9c274.5-276.9,725.4-29.4,654.4,357.8C4162.1,1602.1,3885.2,1741.8,3664.6,1643.7z"/><path d="M6017.3,1643.7c-247.5-107.8-306.3-436.2-112.7-629.9c274.5-276.9,725.4-29.4,654.3,357.8C6514.8,1602.1,6237.9,1741.8,6017.3,1643.7z"/><path d="M2770-1326.7l-134.8-137.2L2770-1584c887.2-796.5,2159.2-1058.7,3293.9-678.8c406.8,134.8,845.5,392.1,1166.6,681.3l134.8,120.1l-139.7,139.7l-139.7,142.1L6978-1280.1c-367.6-340.7-872.5-595.5-1389.6-708.3c-152-34.3-311.3-44.1-588.2-44.1c-546.5,0-882.3,78.4-1360.2,323.5c-220.6,112.7-534.3,335.8-647,455.8c-34.3,34.3-66.2,63.7-76,63.7C2909.7-1189.4,2843.6-1250.7,2770-1326.7z"/></g></g>
</svg>