<svg xmlns="http://www.w3.org/2000/svg" width="7" height="5" viewBox="0 0 7 5">
  <g id="Vereinigungsmenge_1" data-name="Vereinigungsmenge 1" fill="#fff">
    <path d="M 5.50029993057251 4.500400066375732 L 1.499900102615356 4.500400066375732 L 1.499900102615356 4.499599933624268 L 5.50029993057251 4.499599933624268 L 5.50029993057251 4.500400066375732 Z M 6.00029993057251 1.499800086021423 C 5.724649906158447 1.499800086021423 5.500400066375732 1.275550007820129 5.500400066375732 0.9999000430107117 C 5.500400066375732 0.7242500185966492 5.724649906158447 0.5000000596046448 6.00029993057251 0.5000000596046448 C 6.275949954986572 0.5000000596046448 6.500200271606445 0.7242500185966492 6.500200271606445 0.9999000430107117 C 6.500200271606445 1.275550007820129 6.275949954986572 1.499800086021423 6.00029993057251 1.499800086021423 Z M 0.9999001622200012 1.499800086021423 C 0.7242501378059387 1.499800086021423 0.5000001192092896 1.275550007820129 0.5000001192092896 0.9999000430107117 C 0.5000001192092896 0.7242500185966492 0.7242501378059387 0.5000000596046448 0.9999001622200012 0.5000000596046448 C 1.275550127029419 0.5000000596046448 1.499800086021423 0.7242500185966492 1.499800086021423 0.9999000430107117 C 1.499800086021423 1.275550007820129 1.275550127029419 1.499800086021423 0.9999001622200012 1.499800086021423 Z" stroke="none"/>
    <path d="M 6.00029993057251 5.000400066375732 L 0.9999001622200012 5.000400066375732 L 0.9999001622200012 3.999599933624268 L 6.00029993057251 3.999599933624268 L 6.00029993057251 5.000400066375732 Z M 6.00029993057251 1.999800086021423 C 5.447700023651123 1.999800086021423 5.000400066375732 1.552500009536743 5.000400066375732 0.9999000430107117 C 5.000400066375732 0.4473000466823578 5.447700023651123 3.318786667705353e-08 6.00029993057251 3.318786667705353e-08 C 6.552000045776367 3.318786667705353e-08 7.000200271606445 0.4473000466823578 7.000200271606445 0.9999000430107117 C 7.000200271606445 1.552500009536743 6.552000045776367 1.999800086021423 6.00029993057251 1.999800086021423 Z M 0.9999001622200012 1.999800086021423 C 0.447300136089325 1.999800086021423 1.358032193365943e-07 1.552500009536743 1.358032193365943e-07 0.9999000430107117 C 1.358032193365943e-07 0.4473000466823578 0.447300136089325 3.318786667705353e-08 0.9999001622200012 3.318786667705353e-08 C 1.552500128746033 3.318786667705353e-08 1.999800086021423 0.4473000466823578 1.999800086021423 0.9999000430107117 C 1.999800086021423 1.552500009536743 1.552500128746033 1.999800086021423 0.9999001622200012 1.999800086021423 Z" stroke="none" fill="#fff"/>
  </g>
</svg>
