<svg xmlns="http://www.w3.org/2000/svg" width="102" height="16.213" viewBox="0 0 102 16.213">
  <path id="Vereinigungsmenge_1" data-name="Vereinigungsmenge 1" d="M63.494,9.667V6.682L76.139,0V3.531L67.04,8.19l9.1,4.55v3.473ZM98.761,16.2V0H102V16.2Zm-8.713,0V0h3.239V16.2Zm-8.439,0V0h3.239V16.2Zm-24.816,0V0h3.239V16.2Zm-15.922,0L49,0h3.27L44.313,16.2Zm-6.8,0L42.2,0h1.9L36.147,16.2Zm-6.805,0L35.4,0h1.9L29.341,16.2Zm-6.851,0L28.547,0h1.9L22.49,16.2Zm-6.805,0L21.742,0h1.9L15.685,16.2Zm-6.768,0L14.974,0h1.9L8.917,16.2ZM0,16.2,8.131,0h1.9L2.074,16.2Z" fill="#fff"/>
</svg>
