<svg xmlns="http://www.w3.org/2000/svg" width="189" height="189" viewBox="0 0 189 189">
  <g id="Gruppe_34" data-name="Gruppe 34" transform="translate(-137 -471)">
    <g id="Ellipse_35" data-name="Ellipse 35" transform="translate(137 471)" fill="none" stroke="#fff" stroke-width="10">
      <circle cx="94.5" cy="94.5" r="94.5" stroke="none"/>
      <circle cx="94.5" cy="94.5" r="89.5" fill="none"/>
    </g>
    <path id="Pfad_117" data-name="Pfad 117" d="M726.878,515.576s-5.318-4.417-14.65,0S699.7,535,699.7,535s-8.729,33.295,15.677,58.23,49.942,23.527,49.942,23.527,12.1.755,18.99-5.993,3.683-15.6,3.683-15.6l-27.038-4.734a4.032,4.032,0,0,0-4.116,3.5c-.648,3.676,0,3.532,0,3.532s-10.734.375-27.047-18.374-11.234-31.706-11.234-31.706a14.493,14.493,0,0,0,5.025,0,8.885,8.885,0,0,0,4.02-1.8Z" transform="translate(-512.001 -0.18)" fill="#fff"/>
  </g>
</svg>
